<?xml version="1.0" encoding="UTF-8" standalone="no"?>
<svg width="508px" height="508px" viewBox="0 0 508 508" version="1.1" xmlns="http://www.w3.org/2000/svg" xmlns:xlink="http://www.w3.org/1999/xlink">
    <!-- Generator: Sketch 39.1 (31720) - http://www.bohemiancoding.com/sketch -->
    <title>Slice 1</title>
    <desc>Created with Sketch.</desc>
    <defs></defs>
    <g id="Page-1" stroke="none" stroke-width="1" fill="none" fill-rule="evenodd">
        <g id="TCL-icon_white_blue" transform="translate(21.000000, 21.000000)">
            <g id="Forma_1">
                <path d="M419.3,233.3 C419.3,335.6 335.4,419.3 232.9,419.3 C130.4,419.3 46.5,335.6 46.5,233.3 C46.5,131 130.4,47.3 232.9,47.3 C251.5,47.3 267.9,49.6 284.2,54.3 L321.5,17.1 C293.5,7.8 263.3,0.8 233,0.8 C104.8,0.8 0,105.4 0,233.3 C0,361.2 104.8,465.8 233,465.8 C361.2,465.8 466,361.2 466,233.3 L419.3,233.3 L419.3,233.3 Z" id="Shape" fill="#00A9E0"></path>
                <path d="M419.3,233.3 C419.3,335.6 335.4,419.3 232.9,419.3 C130.4,419.3 46.5,335.6 46.5,233.3 C46.5,131 130.4,47.3 232.9,47.3 C251.5,47.3 267.9,49.6 284.2,54.3 L321.5,17.1 C293.5,7.8 263.3,0.8 233,0.8 C104.8,0.8 0,105.4 0,233.3 C0,361.2 104.8,465.8 233,465.8 C361.2,465.8 466,361.2 466,233.3 L419.3,233.3 L419.3,233.3 Z" id="Shape" stroke="#00A9E0" stroke-width="42"></path>
            </g>
            <polygon id="Shape" fill="#FFFFFF" points="469.5 77 433.8 41.3 214.5 260.6 135.5 181.5 99.8 217.2 214.5 332"></polygon>
        </g>
    </g>
</svg>